<svg xmlns="http://www.w3.org/2000/svg" width="256" height="256" fill="none" viewBox="0 0 256 256" id="vscode">
  <rect width="224" height="224" x="16" y="16" fill="#EEE" rx="70"></rect>
  <path fill="url(#paint0_linear_533_2143)" d="M158.008 72.7863C158.008 69.0193 153.791 69.0192 151.916 69.4901C154.54 67.4183 157.618 67.9206 158.711 68.5484L184.054 80.9749C186.469 82.1589 188.001 84.6226 188.001 87.3224V169.071C188.001 171.807 186.428 174.296 183.964 175.461L160.117 186.737C158.477 187.443 154.915 189.186 151.916 186.737C155.665 187.444 157.696 184.775 158.008 182.97V72.7863Z"></path>
  <path fill="url(#paint1_linear_533_2143)" d="M152.22 69.4223C154.209 69.0291 158.008 69.2115 158.008 72.7864V100.925L81.1725 159.051C79.8295 160.067 77.9394 159.899 76.7955 158.661L68.8766 150.092C67.636 148.75 67.7228 146.648 69.0698 145.414L151.915 69.4902L152.22 69.4223Z"></path>
  <path fill="url(#paint2_linear_533_2143)" d="M158.008 155.302L81.1725 97.1757C79.8295 96.1597 77.9394 96.3282 76.7955 97.566L68.8766 106.135C67.636 107.477 67.7228 109.579 69.0698 110.813L151.915 186.737C155.664 187.443 157.695 184.775 158.008 182.97V155.302Z"></path>
  <defs>
    <linearGradient id="paint0_linear_533_2143" x1="169.958" x2="169.958" y1="68" y2="188" gradientUnits="userSpaceOnUse">
      <stop stop-color="#32B5F1"></stop>
      <stop offset="1" stop-color="#2B9FED"></stop>
    </linearGradient>
    <linearGradient id="paint1_linear_533_2143" x1="158.008" x2="72.379" y1="83.145" y2="155.022" gradientUnits="userSpaceOnUse">
      <stop stop-color="#0F6FB3"></stop>
      <stop offset=".271" stop-color="#1279B7"></stop>
      <stop offset=".421" stop-color="#1176B5"></stop>
      <stop offset=".618" stop-color="#0E69AC"></stop>
      <stop offset=".855" stop-color="#0F70AF"></stop>
      <stop offset="1" stop-color="#0F6DAD"></stop>
    </linearGradient>
    <linearGradient id="paint2_linear_533_2143" x1="72.951" x2="158.339" y1="102.215" y2="172.916" gradientUnits="userSpaceOnUse">
      <stop stop-color="#1791D2"></stop>
      <stop offset="1" stop-color="#1173C5"></stop>
    </linearGradient>
  </defs>
</svg>
